<svg width="318" height="69" viewBox="0 0 318 69" fill="none" xmlns="http://www.w3.org/2000/svg">
<path d="M45.408 0V1.632H1.728V32.064H39.936V33.696H1.728V68.352H-4.76837e-07V0H45.408ZM108.215 0H110.327L81.8145 40.896V68.352H80.0865V40.896L51.3825 0H53.5905L80.0865 38.112L80.9505 39.456L81.8145 38.112L108.215 0ZM172.148 65.568V0H173.779V68.352H172.148L124.915 2.88V68.352H123.187V0H124.819L172.148 65.568ZM194.437 0H216.902C226.95 0 234.534 2.976 239.653 8.928C244.838 14.88 247.43 23.296 247.43 34.176C247.43 45.12 244.774 53.568 239.462 59.52C234.15 65.408 226.246 68.352 215.75 68.352H194.437V0ZM196.165 66.72H215.845C225.766 66.72 233.222 63.904 238.214 58.272C243.206 52.576 245.702 44.544 245.702 34.176C245.702 23.808 243.27 15.808 238.405 10.176C233.542 4.48 226.374 1.632 216.902 1.632H196.165V66.72ZM264.75 0H287.214C297.262 0 304.846 2.976 309.966 8.928C315.15 14.88 317.742 23.296 317.742 34.176C317.742 45.12 315.086 53.568 309.774 59.52C304.462 65.408 296.558 68.352 286.062 68.352H264.75V0ZM266.478 66.72H286.158C296.078 66.72 303.534 63.904 308.526 58.272C313.518 52.576 316.014 44.544 316.014 34.176C316.014 23.808 313.582 15.808 308.718 10.176C303.854 4.48 296.686 1.632 287.214 1.632H266.478V66.72Z" fill="white"/>
</svg>
